{
	"asset":{
		"generator":"Khronos glTF Blender I/O v4.3.47",
		"version":"2.0"
	},
	"scene":0,
	"scenes":[
		{
			"name":"Scene",
			"nodes":[
				0,
				1,
				2,
				3,
				4,
				5,
				6,
				7,
				8,
				9,
				10,
				11
			]
		}
	],
	"nodes":[
		{
			"mesh":0,
			"name":"Body",
			"rotation":[
				0.12409619987010956,
				0,
				0,
				0.9922702312469482
			]
		},
		{
			"mesh":1,
			"name":"Eye2",
			"rotation":[
				0.008268047124147415,
				0.07413189858198166,
				0.09364830702543259,
				0.9928072094917297
			],
			"scale":[
				0.135604128241539,
				0.21571920812129974,
				0.21080408990383148
			],
			"translation":[
				0.9526210427284241,
				0.4392498731613159,
				0.7167473435401917
			]
		},
		{
			"mesh":2,
			"name":"Foot1",
			"rotation":[
				0.6488289833068848,
				-0.2811065912246704,
				-0.2811065912246704,
				0.6488290429115295
			],
			"translation":[
				1.546783208847046,
				-1.0453176498413086,
				1.5439095497131348
			]
		},
		{
			"mesh":3,
			"name":"Foot3",
			"rotation":[
				0.680111825466156,
				-0.19351451098918915,
				-0.19351451098918915,
				0.6801118850708008
			],
			"translation":[
				1.6995594501495361,
				-1.0758812427520752,
				2.698749303817749
			]
		},
		{
			"mesh":4,
			"name":"Foot2",
			"rotation":[
				0.652704656124115,
				-0.2719864547252655,
				-0.2719864249229431,
				0.652704656124115
			],
			"translation":[
				1.6006298065185547,
				-1.1164029836654663,
				2.0330705642700195
			]
		},
		{
			"mesh":5,
			"name":"Eye1",
			"rotation":[
				-0.006048303097486496,
				-0.06626535952091217,
				-0.08149441331624985,
				0.9944500923156738
			],
			"scale":[
				0.135604128241539,
				0.21571920812129974,
				0.21080408990383148
			],
			"translation":[
				-0.8542551398277283,
				0.4392498731613159,
				0.7167473435401917
			]
		},
		{
			"mesh":6,
			"name":"Antenne2",
			"rotation":[
				0.6103703379631042,
				-0.7729660868644714,
				0.1719607263803482,
				0.020026762038469315
			],
			"scale":[
				0.6874938607215881,
				1,
				1
			],
			"translation":[
				0.6991703510284424,
				1.2508512735366821,
				0.27131474018096924
			]
		},
		{
			"mesh":7,
			"name":"antennenspitze2",
			"rotation":[
				0.5912795662879944,
				-0.11106586456298828,
				-0.043106917291879654,
				0.7976180911064148
			],
			"scale":[
				0.10471499711275101,
				0.08197169005870819,
				0.1047150045633316
			],
			"translation":[
				0.8842737674713135,
				1.8422259092330933,
				-0.01802903413772583
			]
		},
		{
			"mesh":8,
			"name":"Antenne1",
			"rotation":[
				0.7977250218391418,
				-0.5729949474334717,
				0.014701537787914276,
				0.1873379498720169
			],
			"scale":[
				0.6874938607215881,
				1,
				1
			],
			"translation":[
				-0.5863898992538452,
				1.2754018306732178,
				0.2671527862548828
			]
		},
		{
			"mesh":9,
			"name":"antennenspitze1",
			"rotation":[
				0.5593804121017456,
				0.24307790398597717,
				-0.0063439104706048965,
				0.7924433350563049
			],
			"scale":[
				0.1047150045633316,
				0.0819716826081276,
				0.1047150045633316
			],
			"translation":[
				-0.8507956266403198,
				1.8400473594665527,
				-0.01386706531047821
			]
		},
		{
			"mesh":10,
			"name":"Wings",
			"rotation":[
				-0.9742854237556458,
				-0.22531750798225403,
				0,
				1.5391839269796037e-07
			],
			"scale":[
				0.9382827877998352,
				0.62555330991745,
				0.8172730803489685
			],
			"translation":[
				0.8129398822784424,
				0.76639723777771,
				2.1730949878692627
			]
		},
		{
			"mesh":11,
			"name":"LightBody",
			"rotation":[
				0.12409619987010956,
				0,
				0,
				0.9922702312469482
			]
		}
	],
	"materials":[
		{
			"doubleSided":true,
			"name":"Body",
			"pbrMetallicRoughness":{
				"baseColorTexture":{
					"index":0
				},
				"metallicFactor":0
			}
		},
		{
			"doubleSided":true,
			"name":"Eye",
			"pbrMetallicRoughness":{
				"baseColorFactor":[
					0.10897065699100494,
					0.10897065699100494,
					0.10897065699100494,
					1
				],
				"roughnessFactor":0.359281450510025
			}
		},
		{
			"doubleSided":true,
			"emissiveFactor":[
				1,
				1,
				1
			],
			"name":"Feet",
			"pbrMetallicRoughness":{
				"baseColorFactor":[
					0,
					0,
					0,
					1
				]
			}
		},
		{
			"doubleSided":true,
			"name":"Antenne",
			"pbrMetallicRoughness":{
				"baseColorFactor":[
					0.18744271993637085,
					0.1421205848455429,
					0.5424462556838989,
					1
				],
				"metallicFactor":0,
				"roughnessFactor":0.5
			}
		},
		{
			"doubleSided":true,
			"name":"Antennenspibtzeb",
			"pbrMetallicRoughness":{
				"baseColorFactor":[
					0.3680322766304016,
					0.19966350495815277,
					0.881938099861145,
					1
				],
				"metallicFactor":0.371257483959198,
				"roughnessFactor":0.5
			}
		},
		{
			"alphaMode":"BLEND",
			"doubleSided":true,
			"name":"Wings",
			"pbrMetallicRoughness":{
				"baseColorFactor":[
					1,
					1,
					1,
					0.6499999761581421
				],
				"baseColorTexture":{
					"index":1
				},
				"metallicFactor":0,
				"roughnessFactor":0.5
			}
		}
	],
	"meshes":[
		{
			"name":"Cube",
			"primitives":[
				{
					"attributes":{
						"POSITION":0,
						"NORMAL":1,
						"TEXCOORD_0":2
					},
					"indices":3,
					"material":0
				}
			]
		},
		{
			"name":"Sphere",
			"primitives":[
				{
					"attributes":{
						"POSITION":4,
						"NORMAL":5,
						"TEXCOORD_0":6
					},
					"indices":7,
					"material":1
				}
			]
		},
		{
			"name":"B\u00e9zierCurve.005",
			"primitives":[
				{
					"attributes":{
						"POSITION":8,
						"NORMAL":9,
						"TEXCOORD_0":10
					},
					"indices":11,
					"material":2
				}
			]
		},
		{
			"name":"B\u00e9zierCurve.004",
			"primitives":[
				{
					"attributes":{
						"POSITION":12,
						"NORMAL":13,
						"TEXCOORD_0":14
					},
					"indices":15,
					"material":2
				}
			]
		},
		{
			"name":"B\u00e9zierCurve.003",
			"primitives":[
				{
					"attributes":{
						"POSITION":16,
						"NORMAL":17,
						"TEXCOORD_0":18
					},
					"indices":19,
					"material":2
				}
			]
		},
		{
			"name":"Sphere.001",
			"primitives":[
				{
					"attributes":{
						"POSITION":20,
						"NORMAL":21,
						"TEXCOORD_0":22
					},
					"indices":7,
					"material":1
				}
			]
		},
		{
			"name":"B\u00e9zierCurve",
			"primitives":[
				{
					"attributes":{
						"POSITION":23,
						"NORMAL":24,
						"TEXCOORD_0":25
					},
					"indices":26,
					"material":3
				}
			]
		},
		{
			"name":"Sphere.002",
			"primitives":[
				{
					"attributes":{
						"POSITION":27,
						"NORMAL":28,
						"TEXCOORD_0":29
					},
					"indices":30,
					"material":4
				}
			]
		},
		{
			"name":"B\u00e9zierCurve.001",
			"primitives":[
				{
					"attributes":{
						"POSITION":31,
						"NORMAL":32,
						"TEXCOORD_0":33
					},
					"indices":26,
					"material":3
				}
			]
		},
		{
			"name":"Sphere.003",
			"primitives":[
				{
					"attributes":{
						"POSITION":34,
						"NORMAL":35,
						"TEXCOORD_0":36
					},
					"indices":30,
					"material":4
				}
			]
		},
		{
			"name":"Plane",
			"primitives":[
				{
					"attributes":{
						"POSITION":37,
						"NORMAL":38,
						"TEXCOORD_0":39
					},
					"indices":40,
					"material":5
				}
			]
		},
		{
			"name":"Cube.001",
			"primitives":[
				{
					"attributes":{
						"POSITION":41,
						"NORMAL":42,
						"TEXCOORD_0":43
					},
					"indices":44
				}
			]
		}
	],
	"textures":[
		{
			"sampler":0,
			"source":0
		},
		{
			"sampler":0,
			"source":1
		}
	],
	"images":[
		{
			"mimeType":"image/png",
			"name":"Body",
			"uri":"Body.png"
		},
		{
			"mimeType":"image/png",
			"name":"Wings",
			"uri":"Wings.png"
		}
	],
	"accessors":[
		{
			"bufferView":0,
			"componentType":5126,
			"count":678,
			"max":[
				1.1845641136169434,
				1.9715864658355713,
				3.169461250305176
			],
			"min":[
				-1.1845639944076538,
				-0.5380401611328125,
				-0.1718573421239853
			],
			"type":"VEC3"
		},
		{
			"bufferView":1,
			"componentType":5126,
			"count":678,
			"type":"VEC3"
		},
		{
			"bufferView":2,
			"componentType":5126,
			"count":678,
			"type":"VEC2"
		},
		{
			"bufferView":3,
			"componentType":5123,
			"count":3552,
			"type":"SCALAR"
		},
		{
			"bufferView":4,
			"componentType":5126,
			"count":559,
			"max":[
				0.9999997019767761,
				1,
				0.9999993443489075
			],
			"min":[
				-0.9999990463256836,
				-1,
				-1
			],
			"type":"VEC3"
		},
		{
			"bufferView":5,
			"componentType":5126,
			"count":559,
			"type":"VEC3"
		},
		{
			"bufferView":6,
			"componentType":5126,
			"count":559,
			"type":"VEC2"
		},
		{
			"bufferView":7,
			"componentType":5123,
			"count":2880,
			"type":"SCALAR"
		},
		{
			"bufferView":8,
			"componentType":5126,
			"count":326,
			"max":[
				0.3216089904308319,
				0.1350070834159851,
				2.5750887393951416
			],
			"min":[
				-2.4206950664520264,
				-0.13500721752643585,
				-0.25957340002059937
			],
			"type":"VEC3"
		},
		{
			"bufferView":9,
			"componentType":5126,
			"count":326,
			"type":"VEC3"
		},
		{
			"bufferView":10,
			"componentType":5126,
			"count":326,
			"type":"VEC2"
		},
		{
			"bufferView":11,
			"componentType":5123,
			"count":1488,
			"type":"SCALAR"
		},
		{
			"bufferView":12,
			"componentType":5126,
			"count":326,
			"max":[
				0.10165180265903473,
				0.13077232241630554,
				1.8324275016784668
			],
			"min":[
				-3.078502655029297,
				-0.13077232241630554,
				-0.3023878037929535
			],
			"type":"VEC3"
		},
		{
			"bufferView":13,
			"componentType":5126,
			"count":326,
			"type":"VEC3"
		},
		{
			"bufferView":14,
			"componentType":5126,
			"count":326,
			"type":"VEC2"
		},
		{
			"bufferView":15,
			"componentType":5123,
			"count":1488,
			"type":"SCALAR"
		},
		{
			"bufferView":16,
			"componentType":5126,
			"count":326,
			"max":[
				0.17267879843711853,
				0.21611608564853668,
				2.448423147201538
			],
			"min":[
				-2.6593315601348877,
				-0.13491220772266388,
				-0.40255656838417053
			],
			"type":"VEC3"
		},
		{
			"bufferView":17,
			"componentType":5126,
			"count":326,
			"type":"VEC3"
		},
		{
			"bufferView":18,
			"componentType":5126,
			"count":326,
			"type":"VEC2"
		},
		{
			"bufferView":19,
			"componentType":5123,
			"count":1488,
			"type":"SCALAR"
		},
		{
			"bufferView":20,
			"componentType":5126,
			"count":559,
			"max":[
				0.9999997019767761,
				1,
				0.9999993443489075
			],
			"min":[
				-0.9999990463256836,
				-1,
				-1
			],
			"type":"VEC3"
		},
		{
			"bufferView":21,
			"componentType":5126,
			"count":559,
			"type":"VEC3"
		},
		{
			"bufferView":22,
			"componentType":5126,
			"count":559,
			"type":"VEC2"
		},
		{
			"bufferView":23,
			"componentType":5126,
			"count":193,
			"max":[
				0.47290802001953125,
				0.04000001773238182,
				0.16236862540245056
			],
			"min":[
				-1.0380065441131592,
				-0.04107779636979103,
				-0.30266785621643066
			],
			"type":"VEC3"
		},
		{
			"bufferView":24,
			"componentType":5126,
			"count":193,
			"type":"VEC3"
		},
		{
			"bufferView":25,
			"componentType":5126,
			"count":193,
			"type":"VEC2"
		},
		{
			"bufferView":26,
			"componentType":5123,
			"count":924,
			"type":"SCALAR"
		},
		{
			"bufferView":27,
			"componentType":5126,
			"count":122,
			"max":[
				1,
				0.9999996423721313,
				1
			],
			"min":[
				-1,
				-1,
				-1
			],
			"type":"VEC3"
		},
		{
			"bufferView":28,
			"componentType":5126,
			"count":122,
			"type":"VEC3"
		},
		{
			"bufferView":29,
			"componentType":5126,
			"count":122,
			"type":"VEC2"
		},
		{
			"bufferView":30,
			"componentType":5123,
			"count":360,
			"type":"SCALAR"
		},
		{
			"bufferView":31,
			"componentType":5126,
			"count":193,
			"max":[
				0.47290802001953125,
				0.04000001773238182,
				0.16236862540245056
			],
			"min":[
				-1.0380065441131592,
				-0.04107779636979103,
				-0.30266785621643066
			],
			"type":"VEC3"
		},
		{
			"bufferView":32,
			"componentType":5126,
			"count":193,
			"type":"VEC3"
		},
		{
			"bufferView":33,
			"componentType":5126,
			"count":193,
			"type":"VEC2"
		},
		{
			"bufferView":34,
			"componentType":5126,
			"count":122,
			"max":[
				1,
				0.9999996423721313,
				1
			],
			"min":[
				-1,
				-1,
				-1
			],
			"type":"VEC3"
		},
		{
			"bufferView":35,
			"componentType":5126,
			"count":122,
			"type":"VEC3"
		},
		{
			"bufferView":36,
			"componentType":5126,
			"count":122,
			"type":"VEC2"
		},
		{
			"bufferView":37,
			"componentType":5126,
			"count":1338,
			"max":[
				2.6184587478637695,
				0.01807442307472229,
				0.7129586935043335
			],
			"min":[
				-3.1727359294891357,
				-4.231635570526123,
				-0.8233133554458618
			],
			"type":"VEC3"
		},
		{
			"bufferView":38,
			"componentType":5126,
			"count":1338,
			"type":"VEC3"
		},
		{
			"bufferView":39,
			"componentType":5126,
			"count":1338,
			"type":"VEC2"
		},
		{
			"bufferView":40,
			"componentType":5123,
			"count":2304,
			"type":"SCALAR"
		},
		{
			"bufferView":41,
			"componentType":5126,
			"count":254,
			"max":[
				1.2783496379852295,
				1.8523175716400146,
				5.619369983673096
			],
			"min":[
				-1.3101857900619507,
				-0.9211970567703247,
				3.167771816253662
			],
			"type":"VEC3"
		},
		{
			"bufferView":42,
			"componentType":5126,
			"count":254,
			"type":"VEC3"
		},
		{
			"bufferView":43,
			"componentType":5126,
			"count":254,
			"type":"VEC2"
		},
		{
			"bufferView":44,
			"componentType":5123,
			"count":1248,
			"type":"SCALAR"
		}
	],
	"bufferViews":[
		{
			"buffer":0,
			"byteLength":8136,
			"byteOffset":0,
			"target":34962
		},
		{
			"buffer":0,
			"byteLength":8136,
			"byteOffset":8136,
			"target":34962
		},
		{
			"buffer":0,
			"byteLength":5424,
			"byteOffset":16272,
			"target":34962
		},
		{
			"buffer":0,
			"byteLength":7104,
			"byteOffset":21696,
			"target":34963
		},
		{
			"buffer":0,
			"byteLength":6708,
			"byteOffset":28800,
			"target":34962
		},
		{
			"buffer":0,
			"byteLength":6708,
			"byteOffset":35508,
			"target":34962
		},
		{
			"buffer":0,
			"byteLength":4472,
			"byteOffset":42216,
			"target":34962
		},
		{
			"buffer":0,
			"byteLength":5760,
			"byteOffset":46688,
			"target":34963
		},
		{
			"buffer":0,
			"byteLength":3912,
			"byteOffset":52448,
			"target":34962
		},
		{
			"buffer":0,
			"byteLength":3912,
			"byteOffset":56360,
			"target":34962
		},
		{
			"buffer":0,
			"byteLength":2608,
			"byteOffset":60272,
			"target":34962
		},
		{
			"buffer":0,
			"byteLength":2976,
			"byteOffset":62880,
			"target":34963
		},
		{
			"buffer":0,
			"byteLength":3912,
			"byteOffset":65856,
			"target":34962
		},
		{
			"buffer":0,
			"byteLength":3912,
			"byteOffset":69768,
			"target":34962
		},
		{
			"buffer":0,
			"byteLength":2608,
			"byteOffset":73680,
			"target":34962
		},
		{
			"buffer":0,
			"byteLength":2976,
			"byteOffset":76288,
			"target":34963
		},
		{
			"buffer":0,
			"byteLength":3912,
			"byteOffset":79264,
			"target":34962
		},
		{
			"buffer":0,
			"byteLength":3912,
			"byteOffset":83176,
			"target":34962
		},
		{
			"buffer":0,
			"byteLength":2608,
			"byteOffset":87088,
			"target":34962
		},
		{
			"buffer":0,
			"byteLength":2976,
			"byteOffset":89696,
			"target":34963
		},
		{
			"buffer":0,
			"byteLength":6708,
			"byteOffset":92672,
			"target":34962
		},
		{
			"buffer":0,
			"byteLength":6708,
			"byteOffset":99380,
			"target":34962
		},
		{
			"buffer":0,
			"byteLength":4472,
			"byteOffset":106088,
			"target":34962
		},
		{
			"buffer":0,
			"byteLength":2316,
			"byteOffset":110560,
			"target":34962
		},
		{
			"buffer":0,
			"byteLength":2316,
			"byteOffset":112876,
			"target":34962
		},
		{
			"buffer":0,
			"byteLength":1544,
			"byteOffset":115192,
			"target":34962
		},
		{
			"buffer":0,
			"byteLength":1848,
			"byteOffset":116736,
			"target":34963
		},
		{
			"buffer":0,
			"byteLength":1464,
			"byteOffset":118584,
			"target":34962
		},
		{
			"buffer":0,
			"byteLength":1464,
			"byteOffset":120048,
			"target":34962
		},
		{
			"buffer":0,
			"byteLength":976,
			"byteOffset":121512,
			"target":34962
		},
		{
			"buffer":0,
			"byteLength":720,
			"byteOffset":122488,
			"target":34963
		},
		{
			"buffer":0,
			"byteLength":2316,
			"byteOffset":123208,
			"target":34962
		},
		{
			"buffer":0,
			"byteLength":2316,
			"byteOffset":125524,
			"target":34962
		},
		{
			"buffer":0,
			"byteLength":1544,
			"byteOffset":127840,
			"target":34962
		},
		{
			"buffer":0,
			"byteLength":1464,
			"byteOffset":129384,
			"target":34962
		},
		{
			"buffer":0,
			"byteLength":1464,
			"byteOffset":130848,
			"target":34962
		},
		{
			"buffer":0,
			"byteLength":976,
			"byteOffset":132312,
			"target":34962
		},
		{
			"buffer":0,
			"byteLength":16056,
			"byteOffset":133288,
			"target":34962
		},
		{
			"buffer":0,
			"byteLength":16056,
			"byteOffset":149344,
			"target":34962
		},
		{
			"buffer":0,
			"byteLength":10704,
			"byteOffset":165400,
			"target":34962
		},
		{
			"buffer":0,
			"byteLength":4608,
			"byteOffset":176104,
			"target":34963
		},
		{
			"buffer":0,
			"byteLength":3048,
			"byteOffset":180712,
			"target":34962
		},
		{
			"buffer":0,
			"byteLength":3048,
			"byteOffset":183760,
			"target":34962
		},
		{
			"buffer":0,
			"byteLength":2032,
			"byteOffset":186808,
			"target":34962
		},
		{
			"buffer":0,
			"byteLength":2496,
			"byteOffset":188840,
			"target":34963
		}
	],
	"samplers":[
		{
			"magFilter":9729,
			"minFilter":9987
		}
	],
	"buffers":[
		{
			"byteLength":191336,
			"uri":"FireflyExport.bin"
		}
	]
}
