{
	"asset":{
		"generator":"Khronos glTF Blender I/O v4.3.47",
		"version":"2.0"
	},
	"scene":0,
	"scenes":[
		{
			"name":"Scene",
			"nodes":[
				0,
				1,
				2,
				3,
				4,
				5,
				6,
				7
			]
		}
	],
	"nodes":[
		{
			"mesh":0,
			"name":"Tannen_Blaetter",
			"scale":[
				0.6763753890991211,
				1,
				0.6763753890991211
			],
			"translation":[
				7.099957466125488,
				3.6555542945861816,
				0.008283600211143494
			]
		},
		{
			"mesh":1,
			"name":"Tannen_Stamp",
			"translation":[
				7.099957466125488,
				2.3444457054138184,
				0.008283600211143494
			]
		},
		{
			"mesh":2,
			"name":"Normal_Blaetter",
			"scale":[
				4.801416873931885,
				4.801416873931885,
				4.801416873931885
			],
			"translation":[
				-5.639514923095703,
				11.540019989013672,
				1.7251555919647217
			]
		},
		{
			"mesh":3,
			"name":"Normal_Blaetter.001",
			"scale":[
				4.801416873931885,
				4.801416873931885,
				4.801416873931885
			],
			"translation":[
				-18.782506942749023,
				11.540019989013672,
				1.7251555919647217
			]
		},
		{
			"mesh":4,
			"name":"Normal_Stamp",
			"scale":[
				3.7070038318634033,
				3.7070038318634033,
				3.7070038318634033
			],
			"translation":[
				-6.400461196899414,
				0.4599800109863281,
				2.0542805194854736
			]
		},
		{
			"mesh":5,
			"name":"Normal_Stamp.001",
			"scale":[
				3.7070038318634033,
				3.7070038318634033,
				3.7070038318634033
			],
			"translation":[
				-19.543453216552734,
				0.4599800109863281,
				2.0542805194854736
			]
		},
		{
			"mesh":6,
			"name":"Tannen_Blaetter.001",
			"scale":[
				0.6763753890991211,
				1,
				0.6763753890991211
			],
			"translation":[
				14.666509628295898,
				3.6555542945861816,
				0.008283600211143494
			]
		},
		{
			"mesh":7,
			"name":"Tannen_Stamp.002",
			"translation":[
				14.666500091552734,
				2.3444457054138184,
				0.008283600211143494
			]
		}
	],
	"materials":[
		{
			"doubleSided":true,
			"name":"TanneNewBitte",
			"pbrMetallicRoughness":{
				"baseColorTexture":{
					"index":0
				},
				"metallicFactor":0
			}
		},
		{
			"doubleSided":true,
			"name":"stammtanne",
			"pbrMetallicRoughness":{
				"baseColorTexture":{
					"index":1
				},
				"metallicFactor":0
			}
		},
		{
			"doubleSided":true,
			"name":"BlattKrone",
			"pbrMetallicRoughness":{
				"baseColorTexture":{
					"index":2
				},
				"metallicFactor":0
			}
		},
		{
			"doubleSided":true,
			"name":"BlattKrone.001",
			"pbrMetallicRoughness":{
				"baseColorTexture":{
					"index":3
				},
				"metallicFactor":0
			}
		},
		{
			"doubleSided":true,
			"name":"StammBlatttree",
			"pbrMetallicRoughness":{
				"baseColorTexture":{
					"index":4
				},
				"metallicFactor":0
			}
		},
		{
			"doubleSided":true,
			"name":"StammBlatttree.001",
			"pbrMetallicRoughness":{
				"baseColorTexture":{
					"index":5
				},
				"metallicFactor":0
			}
		},
		{
			"doubleSided":true,
			"name":"Tanne.001",
			"pbrMetallicRoughness":{
				"baseColorTexture":{
					"index":6
				},
				"metallicFactor":0
			}
		},
		{
			"doubleSided":true,
			"name":"stammtanne.002",
			"pbrMetallicRoughness":{
				"baseColorTexture":{
					"index":7
				},
				"metallicFactor":0
			}
		}
	],
	"meshes":[
		{
			"name":"Cylinder.002",
			"primitives":[
				{
					"attributes":{
						"POSITION":0,
						"NORMAL":1,
						"TEXCOORD_0":2
					},
					"indices":3,
					"material":0
				}
			]
		},
		{
			"name":"Cylinder.003",
			"primitives":[
				{
					"attributes":{
						"POSITION":4,
						"NORMAL":5,
						"TEXCOORD_0":6
					},
					"indices":7,
					"material":1
				}
			]
		},
		{
			"name":"Cylinder.006",
			"primitives":[
				{
					"attributes":{
						"POSITION":8,
						"NORMAL":9,
						"TEXCOORD_0":10
					},
					"indices":11,
					"material":2
				}
			]
		},
		{
			"name":"Cylinder.007",
			"primitives":[
				{
					"attributes":{
						"POSITION":12,
						"NORMAL":13,
						"TEXCOORD_0":14
					},
					"indices":11,
					"material":3
				}
			]
		},
		{
			"name":"Cylinder.037",
			"primitives":[
				{
					"attributes":{
						"POSITION":15,
						"NORMAL":16,
						"TEXCOORD_0":17
					},
					"indices":18,
					"material":4
				}
			]
		},
		{
			"name":"Cylinder.005",
			"primitives":[
				{
					"attributes":{
						"POSITION":19,
						"NORMAL":20,
						"TEXCOORD_0":21
					},
					"indices":18,
					"material":5
				}
			]
		},
		{
			"name":"Cylinder.004",
			"primitives":[
				{
					"attributes":{
						"POSITION":22,
						"NORMAL":23,
						"TEXCOORD_0":24
					},
					"indices":3,
					"material":6
				}
			]
		},
		{
			"name":"Cylinder.008",
			"primitives":[
				{
					"attributes":{
						"POSITION":25,
						"NORMAL":26,
						"TEXCOORD_0":27
					},
					"indices":7,
					"material":7
				}
			]
		}
	],
	"textures":[
		{
			"sampler":0,
			"source":0
		},
		{
			"sampler":0,
			"source":1
		},
		{
			"sampler":0,
			"source":2
		},
		{
			"sampler":0,
			"source":3
		},
		{
			"sampler":0,
			"source":4
		},
		{
			"sampler":0,
			"source":5
		},
		{
			"sampler":0,
			"source":6
		},
		{
			"sampler":0,
			"source":7
		}
	],
	"images":[
		{
			"mimeType":"image/png",
			"name":"TanneKroneLight",
			"uri":"TanneKroneLight.png"
		},
		{
			"mimeType":"image/png",
			"name":"TreeTanneStammLight",
			"uri":"TreeTanneStammLight.png"
		},
		{
			"mimeType":"image/png",
			"name":"TreeBlattKroneLight",
			"uri":"TreeBlattKroneLight.png"
		},
		{
			"mimeType":"image/png",
			"name":"TreeBlattKroneDark",
			"uri":"TreeBlattKroneDark.png"
		},
		{
			"mimeType":"image/png",
			"name":"TreeBlattstammLight",
			"uri":"TreeBlattstammLight.png"
		},
		{
			"mimeType":"image/png",
			"name":"TreeBlattstammDark",
			"uri":"TreeBlattstammDark.png"
		},
		{
			"mimeType":"image/png",
			"name":"TanneKroneDark",
			"uri":"TanneKroneDark.png"
		},
		{
			"mimeType":"image/png",
			"name":"TreeTanneStammDark",
			"uri":"TreeTanneStammDark.png"
		}
	],
	"accessors":[
		{
			"bufferView":0,
			"componentType":5126,
			"count":540,
			"max":[
				4.248936176300049,
				13.722222328186035,
				4.467596054077148
			],
			"min":[
				-4.248936176300049,
				-1,
				-3.830880641937256
			],
			"type":"VEC3"
		},
		{
			"bufferView":1,
			"componentType":5126,
			"count":540,
			"type":"VEC3"
		},
		{
			"bufferView":2,
			"componentType":5126,
			"count":540,
			"type":"VEC2"
		},
		{
			"bufferView":3,
			"componentType":5123,
			"count":828,
			"type":"SCALAR"
		},
		{
			"bufferView":4,
			"componentType":5126,
			"count":180,
			"max":[
				0.9510565400123596,
				1,
				1
			],
			"min":[
				-0.9510565400123596,
				-2.3983781337738037,
				-1
			],
			"type":"VEC3"
		},
		{
			"bufferView":5,
			"componentType":5126,
			"count":180,
			"type":"VEC3"
		},
		{
			"bufferView":6,
			"componentType":5126,
			"count":180,
			"type":"VEC2"
		},
		{
			"bufferView":7,
			"componentType":5123,
			"count":288,
			"type":"SCALAR"
		},
		{
			"bufferView":8,
			"componentType":5126,
			"count":1680,
			"max":[
				1.4897946119308472,
				1.103867769241333,
				0.917029857635498
			],
			"min":[
				-1.6496660709381104,
				-0.7625425457954407,
				-1.2340601682662964
			],
			"type":"VEC3"
		},
		{
			"bufferView":9,
			"componentType":5126,
			"count":1680,
			"type":"VEC3"
		},
		{
			"bufferView":10,
			"componentType":5126,
			"count":1680,
			"type":"VEC2"
		},
		{
			"bufferView":11,
			"componentType":5123,
			"count":2520,
			"type":"SCALAR"
		},
		{
			"bufferView":12,
			"componentType":5126,
			"count":1680,
			"max":[
				1.4897946119308472,
				1.103867769241333,
				0.917029857635498
			],
			"min":[
				-1.6496660709381104,
				-0.7625425457954407,
				-1.2340601682662964
			],
			"type":"VEC3"
		},
		{
			"bufferView":13,
			"componentType":5126,
			"count":1680,
			"type":"VEC3"
		},
		{
			"bufferView":14,
			"componentType":5126,
			"count":1680,
			"type":"VEC2"
		},
		{
			"bufferView":15,
			"componentType":5126,
			"count":692,
			"max":[
				1.2937994003295898,
				3.118269443511963,
				0.5149216651916504
			],
			"min":[
				-0.9742064476013184,
				-0.24415922164916992,
				-0.7436966896057129
			],
			"type":"VEC3"
		},
		{
			"bufferView":16,
			"componentType":5126,
			"count":692,
			"type":"VEC3"
		},
		{
			"bufferView":17,
			"componentType":5126,
			"count":692,
			"type":"VEC2"
		},
		{
			"bufferView":18,
			"componentType":5123,
			"count":1434,
			"type":"SCALAR"
		},
		{
			"bufferView":19,
			"componentType":5126,
			"count":692,
			"max":[
				1.2937994003295898,
				3.118269443511963,
				0.5149216651916504
			],
			"min":[
				-0.9742064476013184,
				-0.24415922164916992,
				-0.7436966896057129
			],
			"type":"VEC3"
		},
		{
			"bufferView":20,
			"componentType":5126,
			"count":692,
			"type":"VEC3"
		},
		{
			"bufferView":21,
			"componentType":5126,
			"count":692,
			"type":"VEC2"
		},
		{
			"bufferView":22,
			"componentType":5126,
			"count":540,
			"max":[
				4.248936176300049,
				13.722222328186035,
				4.467596054077148
			],
			"min":[
				-4.248936176300049,
				-1,
				-3.830880641937256
			],
			"type":"VEC3"
		},
		{
			"bufferView":23,
			"componentType":5126,
			"count":540,
			"type":"VEC3"
		},
		{
			"bufferView":24,
			"componentType":5126,
			"count":540,
			"type":"VEC2"
		},
		{
			"bufferView":25,
			"componentType":5126,
			"count":180,
			"max":[
				0.9510565400123596,
				1,
				1
			],
			"min":[
				-0.9510565400123596,
				-2.3983781337738037,
				-1
			],
			"type":"VEC3"
		},
		{
			"bufferView":26,
			"componentType":5126,
			"count":180,
			"type":"VEC3"
		},
		{
			"bufferView":27,
			"componentType":5126,
			"count":180,
			"type":"VEC2"
		}
	],
	"bufferViews":[
		{
			"buffer":0,
			"byteLength":6480,
			"byteOffset":0,
			"target":34962
		},
		{
			"buffer":0,
			"byteLength":6480,
			"byteOffset":6480,
			"target":34962
		},
		{
			"buffer":0,
			"byteLength":4320,
			"byteOffset":12960,
			"target":34962
		},
		{
			"buffer":0,
			"byteLength":1656,
			"byteOffset":17280,
			"target":34963
		},
		{
			"buffer":0,
			"byteLength":2160,
			"byteOffset":18936,
			"target":34962
		},
		{
			"buffer":0,
			"byteLength":2160,
			"byteOffset":21096,
			"target":34962
		},
		{
			"buffer":0,
			"byteLength":1440,
			"byteOffset":23256,
			"target":34962
		},
		{
			"buffer":0,
			"byteLength":576,
			"byteOffset":24696,
			"target":34963
		},
		{
			"buffer":0,
			"byteLength":20160,
			"byteOffset":25272,
			"target":34962
		},
		{
			"buffer":0,
			"byteLength":20160,
			"byteOffset":45432,
			"target":34962
		},
		{
			"buffer":0,
			"byteLength":13440,
			"byteOffset":65592,
			"target":34962
		},
		{
			"buffer":0,
			"byteLength":5040,
			"byteOffset":79032,
			"target":34963
		},
		{
			"buffer":0,
			"byteLength":20160,
			"byteOffset":84072,
			"target":34962
		},
		{
			"buffer":0,
			"byteLength":20160,
			"byteOffset":104232,
			"target":34962
		},
		{
			"buffer":0,
			"byteLength":13440,
			"byteOffset":124392,
			"target":34962
		},
		{
			"buffer":0,
			"byteLength":8304,
			"byteOffset":137832,
			"target":34962
		},
		{
			"buffer":0,
			"byteLength":8304,
			"byteOffset":146136,
			"target":34962
		},
		{
			"buffer":0,
			"byteLength":5536,
			"byteOffset":154440,
			"target":34962
		},
		{
			"buffer":0,
			"byteLength":2868,
			"byteOffset":159976,
			"target":34963
		},
		{
			"buffer":0,
			"byteLength":8304,
			"byteOffset":162844,
			"target":34962
		},
		{
			"buffer":0,
			"byteLength":8304,
			"byteOffset":171148,
			"target":34962
		},
		{
			"buffer":0,
			"byteLength":5536,
			"byteOffset":179452,
			"target":34962
		},
		{
			"buffer":0,
			"byteLength":6480,
			"byteOffset":184988,
			"target":34962
		},
		{
			"buffer":0,
			"byteLength":6480,
			"byteOffset":191468,
			"target":34962
		},
		{
			"buffer":0,
			"byteLength":4320,
			"byteOffset":197948,
			"target":34962
		},
		{
			"buffer":0,
			"byteLength":2160,
			"byteOffset":202268,
			"target":34962
		},
		{
			"buffer":0,
			"byteLength":2160,
			"byteOffset":204428,
			"target":34962
		},
		{
			"buffer":0,
			"byteLength":1440,
			"byteOffset":206588,
			"target":34962
		}
	],
	"samplers":[
		{
			"magFilter":9729,
			"minFilter":9987
		}
	],
	"buffers":[
		{
			"byteLength":208028,
			"uri":"TreesTextureExport.bin"
		}
	]
}
