{
	"asset":{
		"generator":"Khronos glTF Blender I/O v4.3.47",
		"version":"2.0"
	},
	"scene":0,
	"scenes":[
		{
			"name":"Scene",
			"nodes":[
				0,
				1,
				2,
				3,
				4,
				5,
				6,
				7,
				8,
				9
			]
		}
	],
	"nodes":[
		{
			"mesh":0,
			"name":"Turm",
			"translation":[
				0,
				1.0949684381484985,
				0
			]
		},
		{
			"mesh":1,
			"name":"Stempen",
			"rotation":[
				0.6830127239227295,
				-0.1830126941204071,
				-0.1830126941204071,
				0.6830126643180847
			],
			"scale":[
				0.1318271905183792,
				0.0908970832824707,
				0.1318271905183792
			],
			"translation":[
				0,
				2.7842061519622803,
				1.0538753271102905
			]
		},
		{
			"mesh":2,
			"name":"Tuer",
			"rotation":[
				0,
				-0.0387980118393898,
				-0.9992470741271973,
				0
			],
			"scale":[
				-0.23832936584949493,
				-0.2952052056789398,
				-0.019906705245375633
			],
			"translation":[
				0,
				0.3798399567604065,
				0.9668008089065552
			]
		},
		{
			"mesh":3,
			"name":"TuerKnopf",
			"scale":[
				0.02898937091231346,
				0.007487849332392216,
				0.006128555629402399
			],
			"translation":[
				0.16113439202308655,
				0.4264419674873352,
				0.9886894822120667
			]
		},
		{
			"mesh":4,
			"name":"Fenster01",
			"rotation":[
				0,
				0.4335588812828064,
				0,
				0.9011252522468567
			],
			"scale":[
				0.18511301279067993,
				0.1403796672821045,
				0.021119829267263412
			],
			"translation":[
				0.7749710083007812,
				2.8616533279418945,
				0.6143501996994019
			]
		},
		{
			"mesh":5,
			"name":"Fenster01.001",
			"rotation":[
				0,
				-0.43493008613586426,
				0,
				0.9004642367362976
			],
			"scale":[
				0.18511301279067993,
				0.1403796672821045,
				0.021119827404618263
			],
			"translation":[
				-0.7856249809265137,
				2.8616533279418945,
				0.6005148887634277
			]
		},
		{
			"mesh":6,
			"name":"Dach",
			"translation":[
				0,
				3.6562676429748535,
				0
			]
		},
		{
			"mesh":7,
			"name":"Rad-03",
			"rotation":[
				0,
				0,
				-0.51140296459198,
				0.859341025352478
			],
			"scale":[
				0.028018580749630928,
				0.07820399850606918,
				0.01246323436498642
			],
			"translation":[
				-0.10601825267076492,
				2.73833966255188,
				1.200300931930542
			]
		},
		{
			"mesh":8,
			"name":"Rad-02",
			"rotation":[
				0,
				0,
				1,
				4.371138828673793e-08
			],
			"scale":[
				0.028018580749630928,
				0.07820399850606918,
				0.01246323436498642
			],
			"translation":[
				-0.008267629891633987,
				2.899601459503174,
				1.2079176902770996
			]
		},
		{
			"mesh":9,
			"name":"Rad-01",
			"rotation":[
				0,
				0,
				-0.869461715221405,
				0.4940004050731659
			],
			"scale":[
				0.028018580749630928,
				0.07820399850606918,
				0.01246323436498642
			],
			"translation":[
				0.1678762435913086,
				2.6910266876220703,
				1.1680434942245483
			]
		}
	],
	"materials":[
		{
			"doubleSided":true,
			"name":"tower",
			"pbrMetallicRoughness":{
				"baseColorTexture":{
					"index":0
				},
				"metallicFactor":0
			}
		},
		{
			"doubleSided":true,
			"name":"Dach",
			"pbrMetallicRoughness":{
				"baseColorTexture":{
					"index":1
				},
				"roughnessFactor":0.3954545557498932
			}
		},
		{
			"doubleSided":true,
			"name":"henkel",
			"pbrMetallicRoughness":{
				"baseColorFactor":[
					0.442588210105896,
					0.442588210105896,
					0.442588210105896,
					1
				],
				"roughnessFactor":0.5
			}
		},
		{
			"doubleSided":true,
			"name":"Window",
			"pbrMetallicRoughness":{
				"baseColorTexture":{
					"index":2
				},
				"metallicFactor":0,
				"roughnessFactor":0.7545454502105713
			}
		}
	],
	"meshes":[
		{
			"name":"Cylinder.003",
			"primitives":[
				{
					"attributes":{
						"POSITION":0,
						"NORMAL":1,
						"TEXCOORD_0":2
					},
					"indices":3,
					"material":0
				}
			]
		},
		{
			"name":"Cylinder.004",
			"primitives":[
				{
					"attributes":{
						"POSITION":4,
						"NORMAL":5,
						"TEXCOORD_0":6
					},
					"indices":7,
					"material":1
				}
			]
		},
		{
			"name":"Cube.003",
			"primitives":[
				{
					"attributes":{
						"POSITION":8,
						"NORMAL":9,
						"TEXCOORD_0":10
					},
					"indices":11,
					"material":1
				}
			]
		},
		{
			"name":"Cube.004",
			"primitives":[
				{
					"attributes":{
						"POSITION":12,
						"NORMAL":13,
						"TEXCOORD_0":14
					},
					"indices":15,
					"material":2
				}
			]
		},
		{
			"name":"Cube.005",
			"primitives":[
				{
					"attributes":{
						"POSITION":16,
						"NORMAL":17,
						"TEXCOORD_0":18
					},
					"indices":19,
					"material":3
				}
			]
		},
		{
			"name":"Cube.006",
			"primitives":[
				{
					"attributes":{
						"POSITION":20,
						"NORMAL":21,
						"TEXCOORD_0":22
					},
					"indices":19,
					"material":3
				}
			]
		},
		{
			"name":"Cylinder.005",
			"primitives":[
				{
					"attributes":{
						"POSITION":23,
						"NORMAL":24,
						"TEXCOORD_0":25
					},
					"indices":26,
					"material":1
				}
			]
		},
		{
			"name":"Cube.008",
			"primitives":[
				{
					"attributes":{
						"POSITION":27,
						"NORMAL":28,
						"TEXCOORD_0":29
					},
					"indices":30
				}
			]
		},
		{
			"name":"Cube.007",
			"primitives":[
				{
					"attributes":{
						"POSITION":31,
						"NORMAL":32,
						"TEXCOORD_0":33
					},
					"indices":30
				}
			]
		},
		{
			"name":"Cube.009",
			"primitives":[
				{
					"attributes":{
						"POSITION":34,
						"NORMAL":35,
						"TEXCOORD_0":36
					},
					"indices":37
				}
			]
		}
	],
	"textures":[
		{
			"sampler":0,
			"source":0
		},
		{
			"sampler":0,
			"source":1
		},
		{
			"sampler":0,
			"source":2
		}
	],
	"images":[
		{
			"mimeType":"image/png",
			"name":"turm",
			"uri":"turm.png"
		},
		{
			"mimeType":"image/png",
			"name":"Dach",
			"uri":"Dach.png"
		},
		{
			"mimeType":"image/png",
			"name":"Fenster",
			"uri":"Fenster.png"
		}
	],
	"accessors":[
		{
			"bufferView":0,
			"componentType":5126,
			"count":73,
			"max":[
				1.134346604347229,
				2.013909339904785,
				1.0482938289642334
			],
			"min":[
				-1.134346604347229,
				-1,
				-1.1635184288024902
			],
			"type":"VEC3"
		},
		{
			"bufferView":1,
			"componentType":5126,
			"count":73,
			"type":"VEC3"
		},
		{
			"bufferView":2,
			"componentType":5126,
			"count":73,
			"type":"VEC2"
		},
		{
			"bufferView":3,
			"componentType":5123,
			"count":264,
			"type":"SCALAR"
		},
		{
			"bufferView":4,
			"componentType":5126,
			"count":36,
			"max":[
				0.8660253882408142,
				1.6946897506713867,
				1
			],
			"min":[
				-0.8660253882408142,
				-1,
				-1
			],
			"type":"VEC3"
		},
		{
			"bufferView":5,
			"componentType":5126,
			"count":36,
			"type":"VEC3"
		},
		{
			"bufferView":6,
			"componentType":5126,
			"count":36,
			"type":"VEC2"
		},
		{
			"bufferView":7,
			"componentType":5123,
			"count":60,
			"type":"SCALAR"
		},
		{
			"bufferView":8,
			"componentType":5126,
			"count":48,
			"max":[
				1,
				1.5003516674041748,
				7.485692977905273
			],
			"min":[
				-1,
				-0.9733147025108337,
				-1.0307765007019043
			],
			"type":"VEC3"
		},
		{
			"bufferView":9,
			"componentType":5126,
			"count":48,
			"type":"VEC3"
		},
		{
			"bufferView":10,
			"componentType":5126,
			"count":48,
			"type":"VEC2"
		},
		{
			"bufferView":11,
			"componentType":5123,
			"count":144,
			"type":"SCALAR"
		},
		{
			"bufferView":12,
			"componentType":5126,
			"count":24,
			"max":[
				1,
				1,
				1
			],
			"min":[
				-1,
				-1,
				-1
			],
			"type":"VEC3"
		},
		{
			"bufferView":13,
			"componentType":5126,
			"count":24,
			"type":"VEC3"
		},
		{
			"bufferView":14,
			"componentType":5126,
			"count":24,
			"type":"VEC2"
		},
		{
			"bufferView":15,
			"componentType":5123,
			"count":36,
			"type":"SCALAR"
		},
		{
			"bufferView":16,
			"componentType":5126,
			"count":138,
			"max":[
				1,
				1,
				1
			],
			"min":[
				-1,
				-1,
				-1
			],
			"type":"VEC3"
		},
		{
			"bufferView":17,
			"componentType":5126,
			"count":138,
			"type":"VEC3"
		},
		{
			"bufferView":18,
			"componentType":5126,
			"count":138,
			"type":"VEC2"
		},
		{
			"bufferView":19,
			"componentType":5123,
			"count":288,
			"type":"SCALAR"
		},
		{
			"bufferView":20,
			"componentType":5126,
			"count":138,
			"max":[
				1,
				1,
				1
			],
			"min":[
				-1,
				-1,
				-1
			],
			"type":"VEC3"
		},
		{
			"bufferView":21,
			"componentType":5126,
			"count":138,
			"type":"VEC3"
		},
		{
			"bufferView":22,
			"componentType":5126,
			"count":138,
			"type":"VEC2"
		},
		{
			"bufferView":23,
			"componentType":5126,
			"count":49,
			"max":[
				1.1341007947921753,
				0.9346270561218262,
				1.0480667352676392
			],
			"min":[
				-1.1341007947921753,
				-0.5473899841308594,
				-1.1632663011550903
			],
			"type":"VEC3"
		},
		{
			"bufferView":24,
			"componentType":5126,
			"count":49,
			"type":"VEC3"
		},
		{
			"bufferView":25,
			"componentType":5126,
			"count":49,
			"type":"VEC2"
		},
		{
			"bufferView":26,
			"componentType":5123,
			"count":240,
			"type":"SCALAR"
		},
		{
			"bufferView":27,
			"componentType":5126,
			"count":200,
			"max":[
				18.98370933532715,
				0.015720907598733902,
				-2.1993486881256104
			],
			"min":[
				-1.011604905128479,
				-25.765695571899414,
				-4.199349403381348
			],
			"type":"VEC3"
		},
		{
			"bufferView":28,
			"componentType":5126,
			"count":200,
			"type":"VEC3"
		},
		{
			"bufferView":29,
			"componentType":5126,
			"count":200,
			"type":"VEC2"
		},
		{
			"bufferView":30,
			"componentType":5123,
			"count":450,
			"type":"SCALAR"
		},
		{
			"bufferView":31,
			"componentType":5126,
			"count":200,
			"max":[
				18.98370933532715,
				0.015720907598733902,
				-2.1993486881256104
			],
			"min":[
				-1.011604905128479,
				-25.765695571899414,
				-4.199349403381348
			],
			"type":"VEC3"
		},
		{
			"bufferView":32,
			"componentType":5126,
			"count":200,
			"type":"VEC3"
		},
		{
			"bufferView":33,
			"componentType":5126,
			"count":200,
			"type":"VEC2"
		},
		{
			"bufferView":34,
			"componentType":5126,
			"count":200,
			"max":[
				17.01308822631836,
				24.771459579467773,
				1
			],
			"min":[
				-1,
				-1,
				-1.0000005960464478
			],
			"type":"VEC3"
		},
		{
			"bufferView":35,
			"componentType":5126,
			"count":200,
			"type":"VEC3"
		},
		{
			"bufferView":36,
			"componentType":5126,
			"count":200,
			"type":"VEC2"
		},
		{
			"bufferView":37,
			"componentType":5123,
			"count":450,
			"type":"SCALAR"
		}
	],
	"bufferViews":[
		{
			"buffer":0,
			"byteLength":876,
			"byteOffset":0,
			"target":34962
		},
		{
			"buffer":0,
			"byteLength":876,
			"byteOffset":876,
			"target":34962
		},
		{
			"buffer":0,
			"byteLength":584,
			"byteOffset":1752,
			"target":34962
		},
		{
			"buffer":0,
			"byteLength":528,
			"byteOffset":2336,
			"target":34963
		},
		{
			"buffer":0,
			"byteLength":432,
			"byteOffset":2864,
			"target":34962
		},
		{
			"buffer":0,
			"byteLength":432,
			"byteOffset":3296,
			"target":34962
		},
		{
			"buffer":0,
			"byteLength":288,
			"byteOffset":3728,
			"target":34962
		},
		{
			"buffer":0,
			"byteLength":120,
			"byteOffset":4016,
			"target":34963
		},
		{
			"buffer":0,
			"byteLength":576,
			"byteOffset":4136,
			"target":34962
		},
		{
			"buffer":0,
			"byteLength":576,
			"byteOffset":4712,
			"target":34962
		},
		{
			"buffer":0,
			"byteLength":384,
			"byteOffset":5288,
			"target":34962
		},
		{
			"buffer":0,
			"byteLength":288,
			"byteOffset":5672,
			"target":34963
		},
		{
			"buffer":0,
			"byteLength":288,
			"byteOffset":5960,
			"target":34962
		},
		{
			"buffer":0,
			"byteLength":288,
			"byteOffset":6248,
			"target":34962
		},
		{
			"buffer":0,
			"byteLength":192,
			"byteOffset":6536,
			"target":34962
		},
		{
			"buffer":0,
			"byteLength":72,
			"byteOffset":6728,
			"target":34963
		},
		{
			"buffer":0,
			"byteLength":1656,
			"byteOffset":6800,
			"target":34962
		},
		{
			"buffer":0,
			"byteLength":1656,
			"byteOffset":8456,
			"target":34962
		},
		{
			"buffer":0,
			"byteLength":1104,
			"byteOffset":10112,
			"target":34962
		},
		{
			"buffer":0,
			"byteLength":576,
			"byteOffset":11216,
			"target":34963
		},
		{
			"buffer":0,
			"byteLength":1656,
			"byteOffset":11792,
			"target":34962
		},
		{
			"buffer":0,
			"byteLength":1656,
			"byteOffset":13448,
			"target":34962
		},
		{
			"buffer":0,
			"byteLength":1104,
			"byteOffset":15104,
			"target":34962
		},
		{
			"buffer":0,
			"byteLength":588,
			"byteOffset":16208,
			"target":34962
		},
		{
			"buffer":0,
			"byteLength":588,
			"byteOffset":16796,
			"target":34962
		},
		{
			"buffer":0,
			"byteLength":392,
			"byteOffset":17384,
			"target":34962
		},
		{
			"buffer":0,
			"byteLength":480,
			"byteOffset":17776,
			"target":34963
		},
		{
			"buffer":0,
			"byteLength":2400,
			"byteOffset":18256,
			"target":34962
		},
		{
			"buffer":0,
			"byteLength":2400,
			"byteOffset":20656,
			"target":34962
		},
		{
			"buffer":0,
			"byteLength":1600,
			"byteOffset":23056,
			"target":34962
		},
		{
			"buffer":0,
			"byteLength":900,
			"byteOffset":24656,
			"target":34963
		},
		{
			"buffer":0,
			"byteLength":2400,
			"byteOffset":25556,
			"target":34962
		},
		{
			"buffer":0,
			"byteLength":2400,
			"byteOffset":27956,
			"target":34962
		},
		{
			"buffer":0,
			"byteLength":1600,
			"byteOffset":30356,
			"target":34962
		},
		{
			"buffer":0,
			"byteLength":2400,
			"byteOffset":31956,
			"target":34962
		},
		{
			"buffer":0,
			"byteLength":2400,
			"byteOffset":34356,
			"target":34962
		},
		{
			"buffer":0,
			"byteLength":1600,
			"byteOffset":36756,
			"target":34962
		},
		{
			"buffer":0,
			"byteLength":900,
			"byteOffset":38356,
			"target":34963
		}
	],
	"samplers":[
		{
			"magFilter":9729,
			"minFilter":9987
		}
	],
	"buffers":[
		{
			"byteLength":39256,
			"uri":"WindmuehleExport.bin"
		}
	]
}
